<?xml version="1.0" encoding="UTF-8" standalone="no"?>
<!DOCTYPE svg PUBLIC "-//W3C//DTD SVG 20010904//EN"
              "http://www.w3.org/TR/2001/REC-SVG-20010904/DTD/svg10.dtd">
<svg xmlns="http://www.w3.org/2000/svg"
     width="423.28mm" height="423.28mm"
     viewBox="0 0 1200 1200">
   <circle cx="600" cy="600" r="565"/>
    <path id="bulge"
        fill="white" stroke="none"
        d="M 233.57,197.60
           C 455.10,-5.51 799.33,9.42 1002.44,230.95
             1205.54,452.47 1190.61,796.70 969.09,999.81
             858.33,1101.36 686.21,1093.90 584.66,983.13
             483.10,872.37 490.57,700.26 601.33,598.70
             712.09,497.15 719.56,325.03 618.00,214.27
             516.45,103.51 344.33,96.04 233.57,197.60" />
    <path id="delta"
        fill="black" stroke="none"
        d="M 629.98,844.98
           C 629.98,844.98 1043.00,844.97 1043.00,844.97
             1016.40,745.53 950.48,551.12 860.02,396.98
             860.02,396.98 629.98,844.98 629.98,844.98 Z" />
  <path id="delta-hole"
        fill="white" stroke="none"
        d="M 853.52,574.23
           C 855.66,576.11 778.57,752.35 777.02,750.98
             777.02,750.98 922.00,751.00 922.00,751.00
             924.95,749.95 855.90,573.38 853.52,574.23 Z" />
  <path id="inverted-delta"
        fill="white" stroke="none"
        d="M 339.48,790.09
           C 339.48,790.09 559.80,360.29 559.80,360.29
             559.80,360.29 164.06,360.06 164.06,360.06
             185.33,449.06 269.63,666.34 339.48,790.09 Z" />
  <path id="inverted-delta-hole"
        fill="black" stroke="none"
        d="M 346.56,643.00
           C 344.44,640.71 431.78,437.60 434.00,440.00
             434.00,440.00 268.91,440.00 268.91,440.00
             264.95,440.27 343.47,643.21 346.56,643.00 Z" />
</svg>
